<?xml version="1.0" standalone="no"?>
<!DOCTYPE svg PUBLIC "-//W3C//DTD SVG 20010904//EN"
 "http://www.w3.org/TR/2001/REC-SVG-20010904/DTD/svg10.dtd">
<svg version="1.0" xmlns="http://www.w3.org/2000/svg"
 width="118.000000pt" height="118.000000pt" viewBox="0 0 118.000000 118.000000"
 preserveAspectRatio="xMidYMid meet">
<metadata>
Created by potrace 1.14, written by Peter Selinger 2001-2017
</metadata>
<g transform="translate(0.000000,118.000000) scale(0.100000,-0.100000)"
fill="#000000" stroke="none">
<path d="M0 590 l0 -590 590 0 590 0 0 590 0 590 -590 0 -590 0 0 -590z m310
396 c0 -2 -8 -10 -17 -17 -16 -13 -17 -12 -4 4 13 16 21 21 21 13z m220 -65
c0 -4 -6 -15 -13 -25 -11 -15 -17 -16 -40 -5 -26 12 -26 13 -10 40 15 26 18
26 40 12 12 -8 23 -18 23 -22z m-270 25 c0 -2 -8 -10 -17 -17 -16 -13 -17 -12
-4 4 13 16 21 21 21 13z m-60 -50 c0 -2 -8 -10 -17 -17 -16 -13 -17 -12 -4 4
13 16 21 21 21 13z m658 -106 c20 -17 20 -17 -11 -31 -19 -8 -39 -29 -49 -49
l-18 -35 0 33 c0 43 -14 68 -48 86 l-27 15 28 1 c41 0 62 15 78 52 l14 33 6
-44 c3 -27 14 -51 27 -61z m-708 66 c0 -2 -8 -10 -17 -17 -16 -13 -17 -12 -4
4 13 16 21 21 21 13z m-53 -51 c0 -8 -4 -12 -9 -9 -5 3 -6 10 -3 15 9 13 12
11 12 -6z m495 -107 l93 -112 3 102 c3 113 11 124 57 77 29 -28 30 -45 9 -155
-8 -45 -13 -85 -10 -88 6 -6 7 -3 35 88 l19 65 1 -142 1 -143 -48 0 -48 0 -90
110 c-49 60 -92 110 -96 110 -5 0 -8 -49 -8 -110 0 -123 2 -120 -79 -104 l-31
6 0 139 c0 105 -3 139 -12 139 -10 0 -9 3 1 9 7 5 11 13 7 19 -3 5 -3 31 0 56
l7 46 48 0 47 0 94 -112z m-205 80 c-3 -8 -6 -5 -6 6 -1 11 2 17 5 13 3 -3 4
-12 1 -19z m669 -257 c-4 -5 7 -15 23 -22 l29 -13 -96 -56 c-54 -31 -105 -59
-115 -63 -9 -3 -22 -18 -29 -32 -10 -22 -18 -25 -60 -25 -26 0 -48 2 -48 5 0
3 10 21 23 40 17 27 29 35 53 35 16 0 35 -5 42 -12 9 -9 12 -8 12 4 0 9 35 46
77 82 69 59 104 82 89 57z m-696 -78 c0 -23 29 -53 54 -54 18 -1 18 -2 -4 -8
-14 -4 -34 -20 -45 -37 l-20 -30 -15 30 c-10 20 -24 32 -40 34 -24 4 -23 4 7
17 20 9 35 23 39 39 7 29 24 35 24 9z"/>
</g>
</svg>
